<svg id="svg2" fill-rule="evenodd" height="300" stroke-linejoin="bevel" stroke-width=".501" viewBox="0 0 12.800002 12.8" width="300" xmlns="http://www.w3.org/2000/svg" xmlns:xlink="http://www.w3.org/1999/xlink" xmlns:cc="http://creativecommons.org/ns#" xmlns:dc="http://purl.org/dc/elements/1.1/" xmlns:inkscape="http://www.inkscape.org/namespaces/inkscape" xmlns:rdf="http://www.w3.org/1999/02/22-rdf-syntax-ns#" xmlns:sodipodi="http://sodipodi.sourceforge.net/DTD/sodipodi-0.dtd" xmlns:svg="http://www.w3.org/2000/svg" version="1.1" xmlns:svgjs="http://svgjs.dev/svgjs"><g width="100%" height="100%" transform="matrix(1,0,0,1,0,0)"><marker id="DefaultArrow2" markerHeight="1" markerUnits="strokeWidth" markerWidth="1" orient="auto" overflow="visible" viewBox="0 0 1 1"><g id="g7" transform="scale(.009)"><path id="path9" d="m-9 54v-108l126 54z" fill="#ffffff" fill-opacity="1" data-original-color="#000000ff" stroke="none" stroke-opacity="1"/></g></marker><marker id="DefaultArrow3" markerHeight="1" markerUnits="strokeWidth" markerWidth="1" orient="auto" overflow="visible" viewBox="0 0 1 1"><g id="g12" transform="scale(.009)"><path id="path14" d="m-27 54 18-54-18-54 162 54z" fill="#ffffff" fill-opacity="1" data-original-color="#000000ff" stroke="none" stroke-opacity="1"/></g></marker><marker id="DefaultArrow4" markerHeight="1" markerUnits="strokeWidth" markerWidth="1" orient="auto" overflow="visible" viewBox="0 0 1 1"><g id="g17" transform="scale(.009)"><path id="path19" d="m-9 0v-45c0-6.708 11.808-11.58 18-9l108 45c3.916 1.631 9 4.758 9 9s-5.084 7.369-9 9l-108 45c-6.192 2.58-18-2.292-18-9z" fill="#ffffff" fill-opacity="1" data-original-color="#000000ff" stroke="none" stroke-opacity="1"/></g></marker><marker id="DefaultArrow5" markerHeight="1" markerUnits="strokeWidth" markerWidth="1" orient="auto" overflow="visible" viewBox="0 0 1 1"><g id="g22" transform="scale(.009)"><path id="path24" d="m-54 0c0 29.807 24.193 54 54 54s54-24.193 54-54-24.193-54-54-54-54 24.193-54 54z" fill="#ffffff" fill-opacity="1" data-original-color="#000000ff" stroke="none" stroke-opacity="1"/></g></marker><marker id="DefaultArrow6" markerHeight="1" markerUnits="strokeWidth" markerWidth="1" orient="auto" overflow="visible" viewBox="0 0 1 1"><g id="g27" transform="scale(.009)"><path id="path29" d="m-63 0 63 63 63-63-63-63z" fill="#ffffff" fill-opacity="1" data-original-color="#000000ff" stroke="none" stroke-opacity="1"/></g></marker><marker id="DefaultArrow7" markerHeight="1" markerUnits="strokeWidth" markerWidth="1" orient="auto" overflow="visible" viewBox="0 0 1 1"><g id="g32" transform="scale(.009)"><path id="path34" d="m18-54h90l-45 54 45 54h-90l-54-54z" fill="#ffffff" fill-opacity="1" data-original-color="#000000ff" stroke="none" stroke-opacity="1"/></g></marker><marker id="DefaultArrow8" markerHeight="1" markerUnits="strokeWidth" markerWidth="1" orient="auto" overflow="visible" viewBox="0 0 1 1"><g id="g37" transform="scale(.009)"><path id="path39" d="m-36 0 54-54h36l-36 36h9l36-36h36l-36 36h9l36-36h36l-54 54 54 54h-36l-36-36h-9l36 36h-36l-36-36h-9l36 36h-36z" fill="#ffffff" fill-opacity="1" data-original-color="#000000ff" stroke="none" stroke-opacity="1"/></g></marker><marker id="DefaultArrow9" markerHeight="1" markerUnits="strokeWidth" markerWidth="1" orient="auto" overflow="visible" viewBox="0 0 1 1"><g id="g42" transform="scale(.009)"><path id="path44" d="m0 45-45-45 45-45 45 45zm0 18-63-63 63-63 63 63z" fill="#ffffff" fill-opacity="1" data-original-color="#000000ff" stroke="none" stroke-opacity="1"/></g></marker><filter id="StainedFilter" color-interpolation-filters="sRGB"><feBlend id="feBlend47" in="SourceGraphic" in2="BackgroundImage" mode="multiply" result="blend"/><feComposite id="feComposite49" in="blend" in2="SourceAlpha" operator="in" result="comp"/></filter><filter id="BleachFilter" color-interpolation-filters="sRGB"><feBlend id="feBlend52" in="SourceGraphic" in2="BackgroundImage" mode="screen" result="blend"/><feComposite id="feComposite54" in="blend" in2="SourceAlpha" operator="in" result="comp"/></filter><filter id="InvertTransparencyBitmapFilter" color-interpolation-filters="sRGB"><feComponentTransfer id="feComponentTransfer57"><feFuncR id="feFuncR59" amplitude="1.055" exponent=".416666666" offset="-.055" type="gamma"/><feFuncG id="feFuncG61" amplitude="1.055" exponent=".416666666" offset="-.055" type="gamma"/><feFuncB id="feFuncB63" amplitude="1.055" exponent=".416666666" offset="-.055" type="gamma"/></feComponentTransfer><feComponentTransfer id="feComponentTransfer65"><feFuncR id="feFuncR67" intercept="1" slope="-1" type="linear"/><feFuncG id="feFuncG69" intercept="1" slope="-1" type="linear"/><feFuncB id="feFuncB71" intercept="1" slope="-1" type="linear"/><feFuncA id="feFuncA73" intercept="0" type="linear"/></feComponentTransfer><feComponentTransfer id="feComponentTransfer75"><feFuncR id="feFuncR77" amplitude="1" exponent="2.4" offset="0" type="gamma"/><feFuncG id="feFuncG79" amplitude="1" exponent="2.4" offset="0" type="gamma"/><feFuncB id="feFuncB81" amplitude="1" exponent="2.4" offset="0" type="gamma"/></feComponentTransfer></filter><radialGradient id="RadialGradient" cx="0" cy="0" gradientTransform="matrix(0 -1 .886 0 172.174 122.358)" gradientUnits="userSpaceOnUse" r="237.428"><stop id="stop84" offset="0" stop-color="#473600"/><stop id="stop86" offset=".79213500023" stop-color="#3d2f00"/><stop id="stop88" offset=".99000000954" stop-color="#3a2c00"/><stop id="stop90" offset="1" stop-color="#3a2c00"/></radialGradient><radialGradient id="RadialGradient_1" cx="0" cy="0" gradientTransform="matrix(0 -1 .886 0 170.916 119.88)" gradientUnits="userSpaceOnUse" r="237.428"><stop id="stop93" offset="0" stop-color="#553e00"/><stop id="stop95" offset=".79213500023" stop-color="#403200"/><stop id="stop97" offset=".99000000954" stop-color="#3b2b00"/><stop id="stop99" offset="1" stop-color="#3b2b00"/></radialGradient><radialGradient id="RadialGradient_2" cx="0" cy="0" gradientTransform="matrix(0 -1 .886 0 169.66 117.403)" gradientUnits="userSpaceOnUse" r="237.428"><stop id="stop102" offset="0" stop-color="#634700"/><stop id="stop104" offset=".79213500023" stop-color="#443400"/><stop id="stop106" offset=".99000000954" stop-color="#3c2a00"/><stop id="stop108" offset="1" stop-color="#3c2a00"/></radialGradient><radialGradient id="RadialGradient_3" cx="0" cy="0" gradientTransform="matrix(0 -1 .886 0 168.403 114.925)" gradientUnits="userSpaceOnUse" r="237.428"><stop id="stop111" offset="0" stop-color="#724f00"/><stop id="stop113" offset=".79213500023" stop-color="#473600"/><stop id="stop115" offset=".99000000954" stop-color="#3c2900"/><stop id="stop117" offset="1" stop-color="#3c2900"/></radialGradient><radialGradient id="RadialGradient_4" cx="0" cy="0" gradientTransform="matrix(0 -1 .886 0 167.146 112.448)" gradientUnits="userSpaceOnUse" r="237.428"><stop id="stop120" offset="0" stop-color="#805800"/><stop id="stop122" offset=".79213500023" stop-color="#4b3800"/><stop id="stop124" offset=".99000000954" stop-color="#3d2800"/><stop id="stop126" offset="1" stop-color="#3d2800"/></radialGradient><radialGradient id="RadialGradient_5" cx="0" cy="0" gradientTransform="matrix(0 -1 .886 0 165.889 109.97)" gradientUnits="userSpaceOnUse" r="237.428"><stop id="stop129" offset="0" stop-color="#8e6000"/><stop id="stop131" offset=".79213500023" stop-color="#4e3b00"/><stop id="stop133" offset=".99000000954" stop-color="#3e2700"/><stop id="stop135" offset="1" stop-color="#3e2700"/></radialGradient><radialGradient id="RadialGradient_6" cx="0" cy="0" gradientTransform="matrix(0 -1 .886 0 164.632 107.493)" gradientUnits="userSpaceOnUse" r="237.428"><stop id="stop138" offset="0" stop-color="#9c6900"/><stop id="stop140" offset=".79213500023" stop-color="#523d00"/><stop id="stop142" offset=".99000000954" stop-color="#3f2600"/><stop id="stop144" offset="1" stop-color="#3f2600"/></radialGradient><linearGradient id="LinearGradient" gradientUnits="userSpaceOnUse" x1="218.601" x2="261.351" y1="165.399" y2="202.149"><stop id="stop147" offset="0" stop-color="#5c5c5c"/><stop id="stop149" offset="1" stop-color="#000000ff"/></linearGradient><linearGradient id="LinearGradient_1" gradientUnits="userSpaceOnUse" x1="181.122" x2="171.45" y1="157.792" y2="15.934"><stop id="stop152" offset="0" stop-color="#fff"/><stop id="stop154" offset="1" stop-color="#cfd1d2"/></linearGradient><linearGradient id="LinearGradient_2" gradientUnits="userSpaceOnUse" x1="259.851" x2="329.601" y1="172.899" y2="-16.851"><stop id="stop157" offset="0" stop-color="#b5b5b5"/><stop id="stop159" offset="1" stop-color="#000000ff"/></linearGradient><linearGradient id="lg1"><stop id="stop162" offset="0" stop-color="#df9000"/><stop id="stop164" offset=".73033702374" stop-color="#7f5200"/><stop id="stop166" offset=".99000000954" stop-color="#3f2600"/><stop id="stop168" offset="1" stop-color="#3f2600"/></linearGradient><linearGradient id="LinearGradient_3" gradientUnits="userSpaceOnUse" x1="204.11" x2="152.583" xlink:href="#lg1" y1="87.059" y2="22.649"/><linearGradient id="LinearGradient_4" gradientUnits="userSpaceOnUse" x1="199.945" x2="218.986" y1="96.333" y2="181.523"><stop id="stop171" offset="0" stop-color="#ba7d00"/><stop id="stop173" offset=".79213500023" stop-color="#7f5200"/><stop id="stop175" offset=".99000000954" stop-color="#3f2600"/><stop id="stop177" offset="1" stop-color="#3f2600"/></linearGradient><linearGradient id="lg2"><stop id="stop180" offset="0" stop-color="#df9000"/><stop id="stop182" offset=".79213500023" stop-color="#7f5200"/><stop id="stop184" offset=".99000000954" stop-color="#3f2600"/><stop id="stop186" offset="1" stop-color="#3f2600"/></linearGradient><linearGradient id="LinearGradient_5" gradientUnits="userSpaceOnUse" x1="129.134" x2="128.127" xlink:href="#lg2" y1="111.014" y2="47.478"/><linearGradient id="LinearGradient_6" gradientUnits="userSpaceOnUse" x1="129.286" x2="144.384" xlink:href="#lg2" y1="104.867" y2="163.242"/><radialGradient id="RadialGradient_7" cx="0" cy="0" gradientTransform="matrix(.697 -.717 1.232 1.199 183.351 196.899)" gradientUnits="userSpaceOnUse" r="38.717"><stop id="stop198" offset="0" stop-color="#6b4c29"/><stop id="stop200" offset="1" stop-color="#a57348"/></radialGradient><radialGradient id="RadialGradient_8" cx="0" cy="0" gradientTransform="matrix(0 -1 .974 0 134.346 314.993)" gradientUnits="userSpaceOnUse" r="120.999"><stop id="stop203" offset="0" stop-color="#e0bf9e"/><stop id="stop205" offset=".01685390063" stop-color="#e0bf9e"/><stop id="stop207" offset=".20224699378" stop-color="#e6b891"/><stop id="stop209" offset="1" stop-color="#7b5d39"/></radialGradient><radialGradient id="RadialGradient_9" cx="0" cy="0" gradientTransform="matrix(-.014 -1 1.206 -.017 146.601 370.899)" gradientUnits="userSpaceOnUse" r="87.054"><stop id="stop212" offset="0" stop-color="#9a9a9a"/><stop id="stop214" offset="1" stop-color="#313131"/></radialGradient><linearGradient id="LinearGradient_7" gradientUnits="userSpaceOnUse" x1="213.351" x2="159.351" y1="257.649" y2="170.649"><stop id="stop217" offset="0" stop-color="#484848"/><stop id="stop219" offset="1" stop-color="#000000ff"/></linearGradient><linearGradient id="LinearGradient_8" gradientUnits="userSpaceOnUse" x1="133.101" x2="143.601" y1="343.149" y2="257.649"><stop id="stop222" offset="0" stop-color="#8d8d8d"/><stop id="stop224" offset="1" stop-color="#000000ff"/></linearGradient><linearGradient id="lg3"><stop id="stop227" offset="0" stop-color="#fff"/><stop id="stop229" offset="1" stop-color="#000000ff"/></linearGradient><linearGradient id="LinearGradient_9" gradientUnits="userSpaceOnUse" x1="239.24" x2="242.84" xlink:href="#lg3" y1="380.259" y2="251.259"/><linearGradient id="LinearGradient_10" gradientUnits="userSpaceOnUse" x1="115.007" x2="223.007" xlink:href="#lg3" y1="352.336" y2="318.586"/><linearGradient id="LinearGradient_11" gradientUnits="userSpaceOnUse" x1="226.61" x2="175.083" xlink:href="#lg1" y1="87.059" y2="22.649"/><g id="g3126" fill="#333" fill-rule="evenodd" transform="matrix(.641 0 0 .64 0 12.8)"><path id="path3128" d="m16.160598-5.9237502c-.11824.2881915-.203174.7429676-.744414 1.2960286-.016653.0199902-.041634.0449779-.064949.0699656-1.348936 1.3476698-4.04681 1.3493356-8.0936212-2.6986714-4.0501415-4.0496726-4.0468108-6.7466786-2.7012046-8.0976796.0266457-.023322.0499607-.04831.0716103-.064968.5528976-.5414 1.0075393-.626359 1.2939802-.742968.5645551-.106614 1.0591653-.266535 1.4355354.791277l.691122 1.842427c.1865197.538068.0949252.902888-.3697086 1.112785l-.6161811.311513c-.371374.194904-.291437.847916-.159874 1.156098.4579724.877901.771059 1.4076401 1.7036574 2.3405141v.0033317-.0033317c.9325984.932874 1.4605152 1.2460532 2.3398222 1.704161.308091.129936.962575.2115625 1.155756-.1599213l.311422-.6163632c.209834-.4647712.574547-.5580586 1.112456-.3698179l1.841882.6913263c1.075819.4147958.897626.8712377.792709 1.4342938z" fill="#ffffff" fill-opacity="1" data-original-color="#333333ff" stroke="none" stroke-opacity="1"/><path id="path3130" d="m0-9.995079c0-5.517284 4.4748069-9.995079 9.9921255-9.995079 5.5156535 0 9.9921255 4.477795 9.9921255 9.995079 0 5.5189494-4.476472 9.995079-9.9921255 9.995079-5.5173186 0-9.9921255-4.4761296-9.9921255-9.995079zm18.735235 0c0-4.825957-3.918578-8.745694-8.7431095-8.745694-4.8261966 0-8.7431098 3.919737-8.7431098 8.745694 0 4.8276231 3.9169132 8.7456941 8.7431098 8.7456941 4.8245315 0 8.7431095-3.918071 8.7431095-8.7456941z" fill="#ffffff" fill-opacity="1" data-original-color="#333333ff" stroke="none" stroke-opacity="1"/></g></g></svg>